<?xml version="1.0" encoding="UTF-8" standalone="no"?>
<svg
   class="violinPlotCanvas"
   width="302"
   height="260"
   version="1.1"
   id="svg403"
   sodipodi:docname="store_icon.svg"
   inkscape:export-filename="C:\Repos\powerbi-visuals-violin-plot\assets\desktop_icon.png"
   inkscape:export-xdpi="7.9200001"
   inkscape:export-ydpi="7.9200001"
   inkscape:version="1.1 (c68e22c387, 2021-05-23)"
   xmlns:inkscape="http://www.inkscape.org/namespaces/inkscape"
   xmlns:sodipodi="http://sodipodi.sourceforge.net/DTD/sodipodi-0.dtd"
   xmlns="http://www.w3.org/2000/svg"
   xmlns:svg="http://www.w3.org/2000/svg">
  <defs
     id="defs407" />
  <sodipodi:namedview
     id="namedview405"
     pagecolor="#ffffff"
     bordercolor="#666666"
     borderopacity="1.0"
     inkscape:pageshadow="2"
     inkscape:pageopacity="0.0"
     inkscape:pagecheckerboard="0"
     showgrid="false"
     inkscape:zoom="2.6788079"
     inkscape:cx="82.686032"
     inkscape:cy="151"
     inkscape:window-width="1920"
     inkscape:window-height="1017"
     inkscape:window-x="7672"
     inkscape:window-y="1066"
     inkscape:window-maximized="1"
     inkscape:current-layer="svg403" />
  <g
     class="violinPlotSeries"
     transform="translate(0, 0)"
     width="302"
     id="g401">
    <g
       class="violinPlotViolin left"
       transform="rotate(90, 0, 0) translate(0, -151) "
       shape-rendering="geometricPrecision"
       id="g381">
      <path
         class="violinPlotViolinPlot area"
         d="M250.66923076923078,0L249.39230769230767,0.06297942872898847C248.1153846153846,0.12595885745797694,245.56153846153845,0.2519177149159539,243.00769230769228,0.42030221693064784C240.45384615384614,0.5886867189453417,237.9,0.7994968655167528,235.34615384615384,1.25050755748508C232.7923076923077,1.7015182494534071,230.23846153846154,2.3927294868186504,227.68461538461537,3.8298434995003316C225.1307692307692,5.266957512182013,222.57692307692307,7.449974300180132,220.02307692307693,11.253365499675667C217.46923076923076,15.0567566991712,214.9153846153846,20.480522310164147,212.36153846153846,27.213615753032435C209.80769230769232,33.94670919590072,207.25384615384615,41.989130470644355,204.7,50.297367262076136C202.14615384615382,58.60560405350792,199.59230769230766,67.17965636162786,197.03846153846152,75.76021202122554C194.48461538461535,84.3407676808232,191.93076923076922,92.9278266918986,189.37692307692305,99.9237980395252C186.8230769230769,106.91976938715179,184.26923076923075,112.32465307132958,181.7153846153846,115.53883878750057C179.16153846153844,118.75302450367157,176.6076923076923,119.77651225183578,174.05384615384617,118.84744084678094C171.5,117.9183694417261,168.94615384615383,115.0367388834522,166.39230769230767,111.21728875340175C163.8384615384615,107.3978386233513,161.28461538461536,102.6405689215243,158.73076923076923,97.31192672334231C156.17692307692306,91.98328452516031,153.6230769230769,86.08326983062332,151.06923076923076,80.36292506631263C148.51538461538462,74.64258030200192,145.96153846153845,69.10190546791749,143.4076923076923,64.47768855474811C140.85384615384615,59.85347164157876,138.29999999999998,56.14571264932445,135.74615384615385,52.740417539281644C133.19230769230768,49.33512242923884,130.63846153846154,46.23229120140752,128.0846153846154,43.43457711059917C125.53076923076924,40.63686301979082,122.97692307692309,38.144266066005436,120.42307692307693,35.72254748586266C117.86923076923077,33.30082890571989,115.3153846153846,30.94998869921973,112.76153846153845,28.842301865100616C110.2076923076923,26.7346150309815,107.65384615384615,24.870081569243425,105.1,23.154916102719667C102.54615384615384,21.43975063619591,99.99230769230769,19.873953164886473,97.43846153846154,18.46476882442573C94.88461538461539,17.055584483964985,92.33076923076923,15.803013274352942,89.77692307692308,14.703616877543034C87.22307692307692,13.604220480733126,84.66923076923077,12.657998896725353,82.11538461538461,11.748304907984446C79.56153846153845,10.838610919243536,77.00769230769231,9.965444525769492,74.45384615384614,9.41624963853452C71.9,8.867054751299547,69.34615384615384,8.641831370303645,66.7923076923077,8.327459647166295C64.23846153846154,8.013087924028946,61.684615384615384,7.609567858750149,59.13076923076923,7.252500412650939C56.57692307692308,6.895432966551727,54.02307692307693,6.584818139632102,51.46923076923077,6.19120265194311C48.91538461538462,5.797587164254116,46.36153846153846,5.320971015795756,43.80769230769231,4.80940829831926C41.253846153846155,4.297845580842765,38.7,3.7513362943481354,36.14615384615385,3.165775955941988C33.5923076923077,2.58021561753584,31.03846153846154,1.9556042272181744,28.484615384615385,1.4785915160083294C25.93076923076923,1.0015788047984842,23.376923076923077,0.6721647726964597,20.823076923076922,0.4503326332130416C18.26923076923077,0.22850049372962347,15.715384615384616,0.11425024686481174,14.438461538461539,0.05712512343240587L13.161538461538463,0L13.161538461538463,0L14.438461538461539,0C15.715384615384616,0,18.26923076923077,0,20.823076923076925,0C23.376923076923077,0,25.93076923076923,0,28.484615384615385,0C31.03846153846154,0,33.5923076923077,0,36.14615384615385,0C38.7,0,41.253846153846155,0,43.80769230769231,0C46.36153846153846,0,48.91538461538462,0,51.46923076923077,0C54.02307692307693,0,56.57692307692308,0,59.13076923076923,0C61.684615384615384,0,64.23846153846154,0,66.79230769230769,0C69.34615384615384,0,71.9,0,74.45384615384614,0C77.00769230769231,0,79.56153846153845,0,82.11538461538461,0C84.66923076923077,0,87.22307692307692,0,89.77692307692308,0C92.33076923076923,0,94.88461538461539,0,97.43846153846154,0C99.99230769230769,0,102.54615384615384,0,105.1,0C107.65384615384615,0,110.2076923076923,0,112.76153846153845,0C115.3153846153846,0,117.86923076923077,0,120.42307692307693,0C122.97692307692309,0,125.53076923076924,0,128.0846153846154,0C130.63846153846154,0,133.19230769230768,0,135.74615384615385,0C138.29999999999998,0,140.85384615384615,0,143.40769230769232,0C145.96153846153845,0,148.51538461538462,0,151.06923076923076,0C153.6230769230769,0,156.17692307692306,0,158.73076923076923,0C161.28461538461536,0,163.8384615384615,0,166.3923076923077,0C168.94615384615383,0,171.5,0,174.05384615384614,0C176.6076923076923,0,179.16153846153844,0,181.71538461538458,0C184.26923076923075,0,186.8230769230769,0,189.37692307692308,0C191.93076923076922,0,194.48461538461535,0,197.03846153846152,0C199.59230769230766,0,202.14615384615382,0,204.7,0C207.25384615384615,0,209.80769230769232,0,212.36153846153846,0C214.9153846153846,0,217.46923076923076,0,220.0230769230769,0C222.57692307692307,0,225.1307692307692,0,227.68461538461537,0C230.23846153846154,0,232.7923076923077,0,235.34615384615387,0C237.9,0,240.45384615384614,0,243.0076923076923,0C245.56153846153845,0,248.1153846153846,0,249.39230769230767,0L250.66923076923078,0Z"
         style="fill: rgb(0, 0, 0); fill-opacity: 0.2; stroke-width: 0;"
         id="path377" />
      <path
         class="violinPlotViolinPlot line"
         d="M250.66923076923078,0L249.39230769230767,0.06297942872898847C248.1153846153846,0.12595885745797694,245.56153846153845,0.2519177149159539,243.00769230769228,0.42030221693064784C240.45384615384614,0.5886867189453417,237.9,0.7994968655167528,235.34615384615384,1.25050755748508C232.7923076923077,1.7015182494534071,230.23846153846154,2.3927294868186504,227.68461538461537,3.8298434995003316C225.1307692307692,5.266957512182013,222.57692307692307,7.449974300180132,220.02307692307693,11.253365499675667C217.46923076923076,15.0567566991712,214.9153846153846,20.480522310164147,212.36153846153846,27.213615753032435C209.80769230769232,33.94670919590072,207.25384615384615,41.989130470644355,204.7,50.297367262076136C202.14615384615382,58.60560405350792,199.59230769230766,67.17965636162786,197.03846153846152,75.76021202122554C194.48461538461535,84.3407676808232,191.93076923076922,92.9278266918986,189.37692307692305,99.9237980395252C186.8230769230769,106.91976938715179,184.26923076923075,112.32465307132958,181.7153846153846,115.53883878750057C179.16153846153844,118.75302450367157,176.6076923076923,119.77651225183578,174.05384615384617,118.84744084678094C171.5,117.9183694417261,168.94615384615383,115.0367388834522,166.39230769230767,111.21728875340175C163.8384615384615,107.3978386233513,161.28461538461536,102.6405689215243,158.73076923076923,97.31192672334231C156.17692307692306,91.98328452516031,153.6230769230769,86.08326983062332,151.06923076923076,80.36292506631263C148.51538461538462,74.64258030200192,145.96153846153845,69.10190546791749,143.4076923076923,64.47768855474811C140.85384615384615,59.85347164157876,138.29999999999998,56.14571264932445,135.74615384615385,52.740417539281644C133.19230769230768,49.33512242923884,130.63846153846154,46.23229120140752,128.0846153846154,43.43457711059917C125.53076923076924,40.63686301979082,122.97692307692309,38.144266066005436,120.42307692307693,35.72254748586266C117.86923076923077,33.30082890571989,115.3153846153846,30.94998869921973,112.76153846153845,28.842301865100616C110.2076923076923,26.7346150309815,107.65384615384615,24.870081569243425,105.1,23.154916102719667C102.54615384615384,21.43975063619591,99.99230769230769,19.873953164886473,97.43846153846154,18.46476882442573C94.88461538461539,17.055584483964985,92.33076923076923,15.803013274352942,89.77692307692308,14.703616877543034C87.22307692307692,13.604220480733126,84.66923076923077,12.657998896725353,82.11538461538461,11.748304907984446C79.56153846153845,10.838610919243536,77.00769230769231,9.965444525769492,74.45384615384614,9.41624963853452C71.9,8.867054751299547,69.34615384615384,8.641831370303645,66.7923076923077,8.327459647166295C64.23846153846154,8.013087924028946,61.684615384615384,7.609567858750149,59.13076923076923,7.252500412650939C56.57692307692308,6.895432966551727,54.02307692307693,6.584818139632102,51.46923076923077,6.19120265194311C48.91538461538462,5.797587164254116,46.36153846153846,5.320971015795756,43.80769230769231,4.80940829831926C41.253846153846155,4.297845580842765,38.7,3.7513362943481354,36.14615384615385,3.165775955941988C33.5923076923077,2.58021561753584,31.03846153846154,1.9556042272181744,28.484615384615385,1.4785915160083294C25.93076923076923,1.0015788047984842,23.376923076923077,0.6721647726964597,20.823076923076922,0.4503326332130416C18.26923076923077,0.22850049372962347,15.715384615384616,0.11425024686481174,14.438461538461539,0.05712512343240587L13.161538461538463,0"
         style="fill: none; stroke: rgb(0, 0, 0); stroke-width: 4px; stroke-linecap: round;"
         id="path379" />
    </g>
    <g
       class="violinPlotViolin right"
       transform="rotate(90, 0, 0) translate(0, -151) scale(1, -1)"
       shape-rendering="geometricPrecision"
       id="g387">
      <path
         class="violinPlotViolinPlot area"
         d="M250.66923076923078,0L249.39230769230767,0.06297942872898847C248.1153846153846,0.12595885745797694,245.56153846153845,0.2519177149159539,243.00769230769228,0.42030221693064784C240.45384615384614,0.5886867189453417,237.9,0.7994968655167528,235.34615384615384,1.25050755748508C232.7923076923077,1.7015182494534071,230.23846153846154,2.3927294868186504,227.68461538461537,3.8298434995003316C225.1307692307692,5.266957512182013,222.57692307692307,7.449974300180132,220.02307692307693,11.253365499675667C217.46923076923076,15.0567566991712,214.9153846153846,20.480522310164147,212.36153846153846,27.213615753032435C209.80769230769232,33.94670919590072,207.25384615384615,41.989130470644355,204.7,50.297367262076136C202.14615384615382,58.60560405350792,199.59230769230766,67.17965636162786,197.03846153846152,75.76021202122554C194.48461538461535,84.3407676808232,191.93076923076922,92.9278266918986,189.37692307692305,99.9237980395252C186.8230769230769,106.91976938715179,184.26923076923075,112.32465307132958,181.7153846153846,115.53883878750057C179.16153846153844,118.75302450367157,176.6076923076923,119.77651225183578,174.05384615384617,118.84744084678094C171.5,117.9183694417261,168.94615384615383,115.0367388834522,166.39230769230767,111.21728875340175C163.8384615384615,107.3978386233513,161.28461538461536,102.6405689215243,158.73076923076923,97.31192672334231C156.17692307692306,91.98328452516031,153.6230769230769,86.08326983062332,151.06923076923076,80.36292506631263C148.51538461538462,74.64258030200192,145.96153846153845,69.10190546791749,143.4076923076923,64.47768855474811C140.85384615384615,59.85347164157876,138.29999999999998,56.14571264932445,135.74615384615385,52.740417539281644C133.19230769230768,49.33512242923884,130.63846153846154,46.23229120140752,128.0846153846154,43.43457711059917C125.53076923076924,40.63686301979082,122.97692307692309,38.144266066005436,120.42307692307693,35.72254748586266C117.86923076923077,33.30082890571989,115.3153846153846,30.94998869921973,112.76153846153845,28.842301865100616C110.2076923076923,26.7346150309815,107.65384615384615,24.870081569243425,105.1,23.154916102719667C102.54615384615384,21.43975063619591,99.99230769230769,19.873953164886473,97.43846153846154,18.46476882442573C94.88461538461539,17.055584483964985,92.33076923076923,15.803013274352942,89.77692307692308,14.703616877543034C87.22307692307692,13.604220480733126,84.66923076923077,12.657998896725353,82.11538461538461,11.748304907984446C79.56153846153845,10.838610919243536,77.00769230769231,9.965444525769492,74.45384615384614,9.41624963853452C71.9,8.867054751299547,69.34615384615384,8.641831370303645,66.7923076923077,8.327459647166295C64.23846153846154,8.013087924028946,61.684615384615384,7.609567858750149,59.13076923076923,7.252500412650939C56.57692307692308,6.895432966551727,54.02307692307693,6.584818139632102,51.46923076923077,6.19120265194311C48.91538461538462,5.797587164254116,46.36153846153846,5.320971015795756,43.80769230769231,4.80940829831926C41.253846153846155,4.297845580842765,38.7,3.7513362943481354,36.14615384615385,3.165775955941988C33.5923076923077,2.58021561753584,31.03846153846154,1.9556042272181744,28.484615384615385,1.4785915160083294C25.93076923076923,1.0015788047984842,23.376923076923077,0.6721647726964597,20.823076923076922,0.4503326332130416C18.26923076923077,0.22850049372962347,15.715384615384616,0.11425024686481174,14.438461538461539,0.05712512343240587L13.161538461538463,0L13.161538461538463,0L14.438461538461539,0C15.715384615384616,0,18.26923076923077,0,20.823076923076925,0C23.376923076923077,0,25.93076923076923,0,28.484615384615385,0C31.03846153846154,0,33.5923076923077,0,36.14615384615385,0C38.7,0,41.253846153846155,0,43.80769230769231,0C46.36153846153846,0,48.91538461538462,0,51.46923076923077,0C54.02307692307693,0,56.57692307692308,0,59.13076923076923,0C61.684615384615384,0,64.23846153846154,0,66.79230769230769,0C69.34615384615384,0,71.9,0,74.45384615384614,0C77.00769230769231,0,79.56153846153845,0,82.11538461538461,0C84.66923076923077,0,87.22307692307692,0,89.77692307692308,0C92.33076923076923,0,94.88461538461539,0,97.43846153846154,0C99.99230769230769,0,102.54615384615384,0,105.1,0C107.65384615384615,0,110.2076923076923,0,112.76153846153845,0C115.3153846153846,0,117.86923076923077,0,120.42307692307693,0C122.97692307692309,0,125.53076923076924,0,128.0846153846154,0C130.63846153846154,0,133.19230769230768,0,135.74615384615385,0C138.29999999999998,0,140.85384615384615,0,143.40769230769232,0C145.96153846153845,0,148.51538461538462,0,151.06923076923076,0C153.6230769230769,0,156.17692307692306,0,158.73076923076923,0C161.28461538461536,0,163.8384615384615,0,166.3923076923077,0C168.94615384615383,0,171.5,0,174.05384615384614,0C176.6076923076923,0,179.16153846153844,0,181.71538461538458,0C184.26923076923075,0,186.8230769230769,0,189.37692307692308,0C191.93076923076922,0,194.48461538461535,0,197.03846153846152,0C199.59230769230766,0,202.14615384615382,0,204.7,0C207.25384615384615,0,209.80769230769232,0,212.36153846153846,0C214.9153846153846,0,217.46923076923076,0,220.0230769230769,0C222.57692307692307,0,225.1307692307692,0,227.68461538461537,0C230.23846153846154,0,232.7923076923077,0,235.34615384615387,0C237.9,0,240.45384615384614,0,243.0076923076923,0C245.56153846153845,0,248.1153846153846,0,249.39230769230767,0L250.66923076923078,0Z"
         style="fill: rgb(0, 0, 0); fill-opacity: 0.2; stroke-width: 0;"
         id="path383" />
      <path
         class="violinPlotViolinPlot line"
         d="M250.66923076923078,0L249.39230769230767,0.06297942872898847C248.1153846153846,0.12595885745797694,245.56153846153845,0.2519177149159539,243.00769230769228,0.42030221693064784C240.45384615384614,0.5886867189453417,237.9,0.7994968655167528,235.34615384615384,1.25050755748508C232.7923076923077,1.7015182494534071,230.23846153846154,2.3927294868186504,227.68461538461537,3.8298434995003316C225.1307692307692,5.266957512182013,222.57692307692307,7.449974300180132,220.02307692307693,11.253365499675667C217.46923076923076,15.0567566991712,214.9153846153846,20.480522310164147,212.36153846153846,27.213615753032435C209.80769230769232,33.94670919590072,207.25384615384615,41.989130470644355,204.7,50.297367262076136C202.14615384615382,58.60560405350792,199.59230769230766,67.17965636162786,197.03846153846152,75.76021202122554C194.48461538461535,84.3407676808232,191.93076923076922,92.9278266918986,189.37692307692305,99.9237980395252C186.8230769230769,106.91976938715179,184.26923076923075,112.32465307132958,181.7153846153846,115.53883878750057C179.16153846153844,118.75302450367157,176.6076923076923,119.77651225183578,174.05384615384617,118.84744084678094C171.5,117.9183694417261,168.94615384615383,115.0367388834522,166.39230769230767,111.21728875340175C163.8384615384615,107.3978386233513,161.28461538461536,102.6405689215243,158.73076923076923,97.31192672334231C156.17692307692306,91.98328452516031,153.6230769230769,86.08326983062332,151.06923076923076,80.36292506631263C148.51538461538462,74.64258030200192,145.96153846153845,69.10190546791749,143.4076923076923,64.47768855474811C140.85384615384615,59.85347164157876,138.29999999999998,56.14571264932445,135.74615384615385,52.740417539281644C133.19230769230768,49.33512242923884,130.63846153846154,46.23229120140752,128.0846153846154,43.43457711059917C125.53076923076924,40.63686301979082,122.97692307692309,38.144266066005436,120.42307692307693,35.72254748586266C117.86923076923077,33.30082890571989,115.3153846153846,30.94998869921973,112.76153846153845,28.842301865100616C110.2076923076923,26.7346150309815,107.65384615384615,24.870081569243425,105.1,23.154916102719667C102.54615384615384,21.43975063619591,99.99230769230769,19.873953164886473,97.43846153846154,18.46476882442573C94.88461538461539,17.055584483964985,92.33076923076923,15.803013274352942,89.77692307692308,14.703616877543034C87.22307692307692,13.604220480733126,84.66923076923077,12.657998896725353,82.11538461538461,11.748304907984446C79.56153846153845,10.838610919243536,77.00769230769231,9.965444525769492,74.45384615384614,9.41624963853452C71.9,8.867054751299547,69.34615384615384,8.641831370303645,66.7923076923077,8.327459647166295C64.23846153846154,8.013087924028946,61.684615384615384,7.609567858750149,59.13076923076923,7.252500412650939C56.57692307692308,6.895432966551727,54.02307692307693,6.584818139632102,51.46923076923077,6.19120265194311C48.91538461538462,5.797587164254116,46.36153846153846,5.320971015795756,43.80769230769231,4.80940829831926C41.253846153846155,4.297845580842765,38.7,3.7513362943481354,36.14615384615385,3.165775955941988C33.5923076923077,2.58021561753584,31.03846153846154,1.9556042272181744,28.484615384615385,1.4785915160083294C25.93076923076923,1.0015788047984842,23.376923076923077,0.6721647726964597,20.823076923076922,0.4503326332130416C18.26923076923077,0.22850049372962347,15.715384615384616,0.11425024686481174,14.438461538461539,0.05712512343240587L13.161538461538463,0"
         style="fill: none; stroke: rgb(0, 0, 0); stroke-width: 4px; stroke-linecap: round;"
         id="path385" />
    </g>
    <g
       shape-rendering="geometricPrecision"
       id="g399">
      <rect
         class="violinPlotBoxPlot box"
         x="120.8"
         y="142.91926923076926"
         width="60.400000000000006"
         height="41.29569230769232"
         stroke="#000000"
         stroke-width="3px"
         fill="#000000"
         fill-opacity="0.6"
         id="rect389" />
      <line
         class="violinPlotBoxPlot whisker range"
         x1="151"
         x2="151"
         y1="198.7335769230769"
         y2="184.21496153846158"
         stroke-width="3px"
         stroke="#000000"
         id="line391" />
      <line
         class="violinPlotBoxPlot whisker range"
         x1="151"
         x2="151"
         y1="89.54324615384616"
         y2="142.91926923076926"
         stroke-width="3px"
         stroke="#000000"
         id="line393" />
      <line
         class="violinPlotComboPlotFeatureLine median solid"
         x1="122.3"
         x2="179.7"
         y1="167.1776153846154"
         y2="167.1776153846154"
         stroke="#FFFFFF"
         stroke-width="3px"
         id="line395" />
      <circle
         class="violinPlotBoxPlot mean outer"
         cx="151"
         cy="159.55077364438836"
         r="3"
         style="fill: rgb(0, 0, 0); stroke: rgb(255, 255, 255); stroke-width: 3px;"
         id="circle397" />
    </g>
  </g>
</svg>
